Coordinates
version=1
nRows=12
nColumns=34
inDegrees=yes

Units are S.I. units (second, meters, Newtons, ...)
If the header above contains a line with 'inDegrees', this indicates whether rotational values are in degrees (yes) or radians (no).

endheader
time	pelvis_tilt	pelvis_list	pelvis_rotation	pelvis_tx	pelvis_ty	pelvis_tz	hip_flexion_r	hip_adduction_r	hip_rotation_r	knee_angle_r	ankle_angle_r	subtalar_angle_r	mtp_angle_r	hip_flexion_l	hip_adduction_l	hip_rotation_l	knee_angle_l	ankle_angle_l	subtalar_angle_l	mtp_angle_l	lumbar_extension	lumbar_bending	lumbar_rotation	arm_flex_r	arm_add_r	arm_rot_r	elbow_flex_r	pro_sup_r	arm_flex_l	arm_add_l	arm_rot_l	elbow_flex_l	pro_sup_l
      5.00000000	     10.34394936	     -5.86282393	    -23.80745226	      2.14789153	      1.01719055	      0.41435030	      3.54524059	     -1.01130758	      0.75879377	     28.52933152	     14.95557831	      0.53121941	      0.00000000	     -1.32321716	      2.25994513	      1.82482648	     14.70285338	     11.42434250	     -7.41487457	      0.00000000	    -10.86402334	     -3.41326880	      4.09822672	     26.36507912	     -9.53042172	     27.53790151	     35.34438391	    119.74817918	     14.15941478	    -12.01512215	     12.02042283	     15.24273591	    118.65021877
      5.01666670	     10.21400557	     -5.30902944	    -24.36069723	      2.14708726	      1.01593303	      0.41341190	      5.07518033	     -1.70249893	      0.72592951	     30.54493061	     14.97857248	      0.56232673	      0.00000000	     -0.91667133	      2.86261612	      1.35708707	     14.63099074	     11.38476388	     -7.48916276	      0.00000000	    -10.57101934	     -3.81535448	      4.88353962	     26.77134303	     -9.41361204	     28.23601912	     32.90104878	    119.74817918	     14.74679041	    -11.93457288	     11.88228006	     15.41464132	    118.66305298
      5.03333330	     10.15756334	     -4.78773259	    -24.86439228	      2.14648621	      1.01494348	      0.41252005	      6.51498593	     -2.40943862	      0.71280687	     32.72442748	     15.25409433	      1.29543778	      0.00000000	     -0.66464659	      3.45036370	      0.91894080	     14.46488876	     11.29582150	     -7.51714327	      0.00000000	    -10.32868442	     -4.19504226	      5.62672894	     27.09859407	     -9.24539403	     28.79346540	     30.38156214	    119.74817918	     15.28329277	    -11.81406047	     11.69289150	     15.68192437	    118.65152554
      5.05000000	     10.05764677	     -4.37976040	    -25.22590600	      2.14599314	      1.01419375	      0.41159145	      7.81950574	     -3.00788200	      0.51985739	     34.70710168	     15.61371985	      2.25490896	      0.00000000	     -0.48957408	      3.89815500	      0.63805562	     14.13256404	     11.19095210	     -7.56787272	      0.00000000	    -10.12975785	     -4.44776978	      6.32722783	     27.39080196	     -9.12179594	     29.17239726	     27.85121735	    119.74817918	     15.84594103	    -11.63042606	     11.55691305	     16.10472410	    118.66422338
      5.06666670	      9.93984071	     -3.74278897	    -25.41510987	      2.14560797	      1.01331191	      0.41043445	      9.24869462	     -3.78535729	      0.41612335	     36.62695363	     15.69526054	      2.80610130	      0.00000000	     -0.09979190	      4.57048656	      0.55854694	     13.95732274	     10.90859672	     -7.66559745	      0.00000000	     -9.80157719	     -4.92505646	      6.98127107	     27.49880433	     -9.14994812	     29.70354265	     25.61631504	    119.74817918	     16.36122870	    -11.52055613	     11.35522979	     16.83496399	    118.71764741
      5.08333330	      9.96502362	     -3.58373096	    -25.43915017	      2.14563153	      1.01316763	      0.40933829	     10.04409113	     -4.11769636	      0.21464518	     38.08738610	     15.50197054	      2.89023690	      0.00000000	     -0.22880333	      4.82157787	      0.51765527	     13.54824379	     10.84100283	     -7.72585430	      0.00000000	     -9.84735711	     -4.90784614	      7.48996860	     27.62744856	     -9.17114991	     29.62601143	     23.40733375	    119.74817918	     16.92267671	    -11.31977761	     11.29451722	     17.42453129	    118.76869232
      5.10000000	     10.04302981	     -3.38998588	    -25.36339323	      2.14622664	      1.01313541	      0.40845304	     10.52143263	     -4.49761503	      0.07249819	     39.07631553	     15.03159343	      2.99566396	      0.00000000	     -0.34109807	      5.12525796	      0.56462081	     13.31819782	     10.87677707	     -7.71222323	      0.00000000	     -9.85543740	     -4.97676603	      8.09124415	     27.42258058	     -9.36545808	     29.47297981	     21.65327243	    119.74817918	     17.44963717	    -11.18349796	     11.29547340	     18.29857659	    118.81621183
      5.11666670	      9.95003507	     -3.06576187	    -25.39339063	      2.14708952	      1.01278226	      0.40727282	     11.35472182	     -4.96415054	     -0.02354232	     40.25613527	     14.74646096	      3.01005926	      0.00000000	     -0.43939643	      5.52256524	      0.54037509	     12.65453316	     10.54338007	     -7.66859918	      0.00000000	     -9.63746948	     -5.02127409	      8.57912416	     27.38829054	     -9.40490691	     28.96636416	     19.53373994	    119.74817918	     17.64674308	    -11.09981016	     11.26669296	     19.64429327	    118.90944611
      5.13333330	      9.85851481	     -2.93779653	    -25.20491277	      2.14836689	      1.01286352	      0.40597338	     11.82731243	     -5.27807448	     -0.43577764	     40.96214318	     13.72589295	      2.70262911	      0.00000000	     -0.67508605	      5.72485481	      0.73114850	     11.97567571	     10.46319403	     -7.55522078	      0.00000000	     -9.48117965	     -4.88451395	      9.12342141	     26.83586280	     -9.84757835	     28.65954623	     18.35745897	    119.74817918	     17.95821352	    -10.83615477	     11.29260932	     20.81739557	    118.96490116
      5.15000000	      9.81081083	     -2.67032968	    -25.11984655	      2.15012410	      1.01275389	      0.40480366	     12.16024990	     -5.66524331	     -0.55740175	     41.38631660	     12.91091439	      1.94035438	      0.00000000	     -0.93871951	      6.11730302	      0.94482206	     11.24878279	     10.22422835	     -7.53940990	      0.00000000	     -9.27275942	     -4.81517651	      9.42590554	     26.42549864	    -10.08031836	     27.89477710	     16.97226624	    119.74817918	     17.82069038	    -10.78552536	     11.35638550	     22.62616098	    119.06424819
      5.16666670	      9.82366111	     -2.60636858	    -25.03392474	      2.15188050	      1.01280961	      0.40388992	     12.18447996	     -6.00207965	     -1.13501284	     41.57022192	     12.37940465	      1.53443128	      0.00000000	     -1.10407353	      6.29141866	      1.00918300	     11.05686094	     10.18193773	     -7.50689860	      0.00000000	     -9.17264584	     -4.61119748	     10.05514526	     25.66102329	    -10.74891941	     27.63717156	     16.11255694	    119.74635662	     18.09597900	    -10.45517306	     11.40792972	     23.70447119	    119.09554373
      5.18333330	      9.93552110	     -2.47968339	    -24.84392805	      2.15387506	      1.01317259	      0.40353357	     12.00254875	     -6.26384105	     -1.43421792	     41.45927787	     11.10469871	      0.19110583	      0.00000000	     -1.59516038	      6.54768549	      1.33536391	     10.42105898	      9.85065676	     -7.50980049	      0.00000000	     -9.08751943	     -4.53890661	     10.13988235	     25.00889810	    -10.92626719	     26.27227468	     15.21130630	    119.64977132	     17.51202746	    -10.72629319	     11.62576915	     26.36327208	    119.25560535
